<?xml version="1.0" standalone="no"?>
<!DOCTYPE svg PUBLIC "-//W3C//DTD SVG 20010904//EN"
 "http://www.w3.org/TR/2001/REC-SVG-20010904/DTD/svg10.dtd">
<svg version="1.0" xmlns="http://www.w3.org/2000/svg"
 width="1024.000000pt" height="1024.000000pt" viewBox="0 0 1024.000000 1024.000000"
 preserveAspectRatio="xMidYMid meet">

<g transform="translate(0.000000,1024.000000) scale(0.100000,-0.100000)"
fill="#000000" stroke="none">
<path d="M2541 7259 c-74 -14 -168 -65 -221 -118 -53 -53 -104 -147 -115 -211
l-7 -39 -140 -3 -140 -3 -34 -40 -33 -40 -193 -5 c-184 -5 -196 -6 -251 -32
-80 -38 -168 -129 -196 -203 l-21 -57 2 -1286 3 -1287 33 -67 c38 -77 97 -134
181 -175 l56 -28 850 -3 850 -2 -83 50 c-83 49 -194 134 -241 184 l-24 26
-649 0 -648 0 -32 29 -33 29 -3 1236 c-2 1095 0 1240 13 1266 28 54 45 58 223
62 l162 3 0 -45 c0 -59 35 -128 79 -157 l34 -23 655 0 c641 0 655 0 688 20 42
27 84 109 84 168 l0 43 171 -3 171 -3 29 -33 29 -32 0 -594 0 -593 41 -18 c23
-11 75 -41 117 -67 42 -26 82 -48 89 -48 11 0 13 123 11 683 l-3 682 -27 57
c-35 76 -95 138 -170 179 l-63 34 -200 3 -200 3 -37 42 -36 42 -140 3 -139 3
-6 49 c-17 146 -166 288 -332 319 -66 12 -91 12 -154 0z m142 -271 c28 -15 57
-69 57 -108 0 -67 -63 -130 -130 -130 -34 0 -79 29 -100 63 -68 111 57 236
173 175z"/>
<path d="M1765 5945 c-33 -32 -35 -110 -4 -149 l20 -26 828 0 828 0 27 26 c36
37 37 109 1 148 l-24 26 -826 0 -826 0 -24 -25z"/>
<path d="M4831 5764 c-166 -45 -301 -181 -346 -350 -21 -78 -21 -250 0 -327
45 -170 154 -303 294 -357 70 -27 204 -37 283 -21 89 19 170 64 231 131 80 86
117 200 117 363 l0 67 -224 0 -224 0 -4 -81 c-2 -44 -1 -83 1 -85 2 -2 55 -4
118 -4 l113 0 -6 -27 c-21 -87 -66 -137 -142 -159 -138 -40 -266 28 -323 172
-19 49 -23 78 -23 169 -1 101 2 115 28 173 32 69 87 124 144 143 20 7 66 9
108 7 88 -6 136 -33 184 -103 l31 -45 101 0 101 0 -7 43 c-15 98 -98 207 -196
257 -92 47 -254 62 -359 34z"/>
<path d="M7800 5752 c-131 -34 -244 -130 -305 -256 -41 -88 -55 -153 -55 -261
0 -167 44 -281 149 -386 226 -226 591 -190 767 76 102 153 111 397 22 577 -38
75 -143 185 -208 216 -111 53 -249 65 -370 34z m245 -206 c58 -27 118 -89 149
-155 18 -39 21 -65 21 -166 0 -111 -2 -124 -27 -171 -65 -124 -212 -184 -339
-139 -123 44 -191 160 -190 328 1 195 112 327 276 327 42 0 75 -7 110 -24z"/>
<path d="M8771 5754 c-158 -42 -251 -148 -251 -284 0 -157 111 -260 355 -330
61 -18 127 -41 147 -53 42 -23 73 -77 64 -111 -21 -83 -122 -117 -242 -81 -59
17 -98 54 -116 110 -15 44 0 41 -154 37 l-76 -2 7 -47 c20 -136 117 -241 257
-279 79 -21 223 -18 300 6 154 47 237 152 238 298 0 167 -69 233 -320 307
-198 59 -235 84 -235 162 0 37 5 49 31 72 79 71 250 33 285 -64 l13 -35 98 0
98 0 0 33 c0 161 -161 278 -378 276 -37 0 -91 -7 -121 -15z"/>
<path d="M7070 5670 l-75 -5 -3 -97 -3 -97 -52 -3 -52 -3 -3 -77 -3 -78 56 0
55 0 0 -222 c0 -197 3 -228 19 -265 39 -84 145 -124 279 -104 42 6 80 15 85
20 4 4 7 46 5 92 l-3 84 -77 5 c-114 7 -112 4 -116 215 l-3 175 90 0 91 0 0
80 0 80 -90 0 -89 0 -3 102 c-2 81 -6 101 -18 102 -8 1 -49 -1 -90 -4z"/>
<path d="M1760 5493 c-18 -23 -21 -37 -18 -82 8 -98 -36 -91 625 -91 l574 0
24 25 c33 32 35 110 4 149 l-20 26 -584 0 -584 0 -21 -27z"/>
<path d="M5753 5486 c-231 -75 -331 -353 -212 -588 61 -122 163 -188 300 -196
133 -8 233 46 299 162 47 81 44 86 -52 86 -83 0 -83 0 -111 -35 -84 -105 -250
-45 -282 103 l-7 32 247 0 c219 0 246 2 252 16 3 9 1 55 -5 101 -20 150 -90
257 -201 306 -58 25 -170 32 -228 13z m163 -162 c37 -18 71 -65 80 -113 l7
-31 -158 0 -157 0 7 28 c26 107 127 160 221 116z"/>
<path d="M6417 5484 c-61 -19 -128 -84 -145 -140 -15 -51 -14 -128 1 -172 28
-77 97 -120 235 -146 45 -9 95 -22 111 -30 48 -25 55 -73 16 -111 -19 -20 -34
-25 -72 -25 -62 0 -93 17 -118 63 l-20 37 -88 0 c-100 0 -107 -6 -88 -70 17
-58 69 -119 130 -153 47 -26 68 -32 141 -35 205 -10 323 81 323 247 0 37 -7
82 -16 103 -21 49 -81 91 -153 107 -213 47 -224 53 -224 111 0 35 5 43 33 61
56 35 135 11 158 -48 8 -21 15 -23 94 -23 84 0 85 0 85 25 0 75 -86 174 -174
200 -62 19 -166 18 -229 -1z"/>
<path d="M3378 5189 c-93 -12 -216 -59 -298 -114 -298 -198 -398 -601 -229
-925 82 -159 227 -280 407 -340 86 -29 110 -33 212 -34 132 -1 203 15 319 69
144 69 259 184 327 332 53 113 67 188 61 333 -7 171 -42 273 -139 405 -145
196 -413 307 -660 274z m515 -389 c37 -42 37 -94 -2 -146 -16 -21 -134 -144
-263 -271 -298 -297 -265 -289 -450 -105 -140 138 -158 162 -158 218 0 28 8
44 35 71 32 32 40 35 77 30 35 -5 53 -18 127 -91 48 -47 91 -86 96 -86 6 0 93
86 195 191 101 106 198 201 215 211 42 26 92 18 128 -22z"/>
<path d="M1769 5071 c-39 -40 -41 -109 -4 -146 l24 -25 434 0 434 0 24 26 c19
20 24 36 24 76 0 42 -4 53 -28 74 l-28 24 -425 0 -426 0 -29 -29z"/>
</g>
</svg>
